name C:\Users\u0101727\Documents\MyRepositories\upper-imu-dc\Results\main_tracking\Case_47\FLX03_angularVelocities_bodyFrame.mot
datacolumns 4
datarows 94
range 3.76000000 4.69000000
endheader 
time	radius_imu_x	radius_imu_y	radius_imu_z	
          3.76000000	          0.09962078	         -0.06621250	          0.36017880	
          3.77000000	          0.10035775	         -0.06074121	          0.37613119	
          3.78000000	          0.10172224	         -0.05685086	          0.39054432	
          3.79000000	          0.10369071	         -0.05403510	          0.40339298	
          3.80000000	          0.10620526	         -0.05183395	          0.41464976	
          3.81000000	          0.10918155	         -0.04986026	          0.42429120	
          3.82000000	          0.11251768	         -0.04780344	          0.43230427	
          3.83000000	          0.11610292	         -0.04541768	          0.43869215	
          3.84000000	          0.11982527	         -0.04250469	          0.44347845	
          3.85000000	          0.12357750	         -0.03889853	          0.44670947	
          3.86000000	          0.12726192	         -0.03445525	          0.44845433	
          3.87000000	          0.13079477	         -0.02904732	          0.44880309	
          3.88000000	          0.13411084	         -0.02256083	          0.44786291	
          3.89000000	          0.13716838	         -0.01489331	          0.44575299	
          3.90000000	          0.13995293	         -0.00595279	          0.44259985	
          3.91000000	          0.14247888	          0.00433898	          0.43853391	
          3.92000000	          0.14478747	          0.01603487	          0.43368867	
          3.93000000	          0.14694165	          0.02913902	          0.42820209	
          3.94000000	          0.14901971	          0.04357092	          0.42221908	
          3.95000000	          0.15110849	          0.05912188	          0.41589508	
          3.96000000	          0.15329847	          0.07542012	          0.40939872	
          3.97000000	          0.15567860	          0.09192023	          0.40291445	
          3.98000000	          0.15833076	          0.10792353	          0.39664420	
          3.99000000	          0.16132301	          0.12262393	          0.39080827	
          4.00000000	          0.16470135	          0.13517001	          0.38564524	
          4.01000000	          0.16848271	          0.14473207	          0.38140969	
          4.02000000	          0.17265071	          0.15056262	          0.37836763	
          4.03000000	          0.17715635	          0.15204524	          0.37678847	
          4.04000000	          0.18192388	          0.14873175	          0.37693373	
          4.05000000	          0.18686060	          0.14037069	          0.37904368	
          4.06000000	          0.19186931	          0.12692978	          0.38332310	
          4.07000000	          0.19686101	          0.10861218	          0.38992817	
          4.08000000	          0.20176589	          0.08586407	          0.39895542	
          4.09000000	          0.20654051	          0.05936903	          0.41043355	
          4.10000000	          0.21117012	          0.03002596	          0.42431857	
          4.11000000	          0.21566582	         -0.00108927	          0.44049238	
          4.12000000	          0.22005765	         -0.03277537	          0.45876538	
          4.13000000	          0.22438538	         -0.06376799	          0.47888311	
          4.14000000	          0.22868903	         -0.09281090	          0.50053660	
          4.15000000	          0.23300092	         -0.11873120	          0.52337519	
          4.16000000	          0.23734009	         -0.14051017	          0.54702004	
          4.17000000	          0.24170955	         -0.15734136	          0.57107730	
          4.18000000	          0.24609637	         -0.16867078	          0.59515077	
          4.19000000	          0.25047385	         -0.17421753	          0.61885443	
          4.20000000	          0.25480500	         -0.17397521	          0.64182489	
          4.21000000	          0.25904636	         -0.16819517	          0.66373318	
          4.22000000	          0.26315181	         -0.15735404	          0.68429462	
          4.23000000	          0.26707623	         -0.14210834	          0.70327549	
          4.24000000	          0.27077904	         -0.12324019	          0.72049544	
          4.25000000	          0.27422779	         -0.10159923	          0.73582604	
          4.26000000	          0.27740112	         -0.07804674	          0.74918671	
          4.27000000	          0.28029113	         -0.05340795	          0.76053973	
          4.28000000	          0.28290516	         -0.02843574	          0.76988543	
          4.29000000	          0.28526780	         -0.00378656	          0.77725740	
          4.30000000	          0.28742289	          0.01999101	          0.78271778	
          4.31000000	          0.28943464	          0.04245525	          0.78635287	
          4.32000000	          0.29138654	          0.06325919	          0.78827039	
          4.33000000	          0.29337710	          0.08213150	          0.78859929	
          4.34000000	          0.29551254	          0.09885737	          0.78749227	
          4.35000000	          0.29789748	          0.11326521	          0.78512928	
          4.36000000	          0.30062584	          0.12522255	          0.78172043	
          4.37000000	          0.30377318	          0.13464038	          0.77750694	
          4.38000000	          0.30739238	          0.14148116	          0.77275959	
          4.39000000	          0.31151264	          0.14576516	          0.76777420	
          4.40000000	          0.31614112	          0.14757136	          0.76286382	
          4.41000000	          0.32126636	          0.14703095	          0.75834702	
          4.42000000	          0.32686250	          0.14431445	          0.75453243	
          4.43000000	          0.33289356	          0.13961637	          0.75170085	
          4.44000000	          0.33931732	          0.13314146	          0.75008728	
          4.45000000	          0.34608819	          0.12509696	          0.74986582	
          4.46000000	          0.35315878	          0.11569201	          0.75113964	
          4.47000000	          0.36048017	          0.10514186	          0.75393735	
          4.48000000	          0.36800169	          0.09367258	          0.75821617	
          4.49000000	          0.37567105	          0.08152143	          0.76387175	
          4.50000000	          0.38343577	          0.06892962	          0.77075331	
          4.51000000	          0.39124551	          0.05612712	          0.77868203	
          4.52000000	          0.39905482	          0.04331372	          0.78746951	
          4.53000000	          0.40682551	          0.03064245	          0.79693313	
          4.54000000	          0.41452852	          0.01821117	          0.80690593	
          4.55000000	          0.42214563	          0.00606467	          0.81724114	
          4.56000000	          0.42967135	         -0.00579337	          0.82781259	
          4.57000000	          0.43711448	         -0.01738213	          0.83851334	
          4.58000000	          0.44449887	         -0.02872451	          0.84925359	
          4.59000000	          0.45186234	         -0.03983238	          0.85995816	
          4.60000000	          0.45925367	         -0.05069995	          0.87056245	
          4.61000000	          0.46672845	         -0.06130563	          0.88100686	
          4.62000000	          0.47434493	         -0.07161978	          0.89123024	
          4.63000000	          0.48216100	         -0.08161370	          0.90116363	
          4.64000000	          0.49023210	         -0.09126481	          0.91072545	
          4.65000000	          0.49860902	         -0.10055508	          0.91981834	
          4.66000000	          0.50733465	         -0.10946359	          0.92832766	
          4.67000000	          0.51643906	         -0.11795824	          0.93612133	
          4.68000000	          0.52593362	         -0.12599161	          0.94305138	
          4.69000000	          0.53580553	         -0.13350301	          0.94895723	
